<svg xmlns="http://www.w3.org/2000/svg" xml:space="preserve" width="258.879" height="258.879" version="1.0" style="shape-rendering:geometricPrecision;text-rendering:geometricPrecision;image-rendering:optimizeQuality;fill-rule:evenodd;clip-rule:evenodd" viewBox="0 0 2696.66 2696.66"><defs><style>.fil1{fill:#fefefe}</style></defs><g id="Layer_x0020_1"><path d="M1307.37 1115h1191.91c107.65 0 195.71 88.07 195.71 195.71v1191.91c0 107.65-88.07 195.71-195.71 195.71H1307.37c-107.65 0-195.71-88.07-195.71-195.71V1310.71c0-107.65 88.07-195.71 195.71-195.71z" style="fill:#505050"/><path id="_1" class="fil1" d="M1307.37 1115h1191.91c107.65 0 195.71 88.07 195.71 195.71v1191.91c0 107.65-88.07 195.71-195.71 195.71H1307.37c-107.65 0-195.71-88.07-195.71-195.71V1310.71c0-107.65 88.07-195.71 195.71-195.71zm1191.91 55.56H1307.37c-38.48 0-73.52 15.79-98.94 41.21-25.43 25.43-41.21 60.46-41.21 98.94v1191.91c0 38.48 15.79 73.52 41.21 98.94 25.43 25.43 60.46 41.21 98.94 41.21h1191.91c38.48 0 73.52-15.79 98.94-41.21 25.43-25.43 41.21-60.46 41.21-98.94V1310.71c0-38.48-15.79-73.52-41.21-98.94-25.43-25.43-60.46-41.21-98.94-41.21z"/><path d="M204.34 1.67h1254.64c113.3 0 206.01 92.71 206.01 206.01v1254.64c0 113.3-92.71 206.01-206.01 206.01H204.34c-113.3 0-206.01-92.71-206.01-206.01V207.68c0-113.3 92.71-206.01 206.01-206.01z" style="fill:#c2393e"/><path id="_1_0" class="fil1" d="M204.34 1.67h1254.64c113.3 0 206.01 92.71 206.01 206.01v1254.64c0 113.3-92.71 206.01-206.01 206.01H204.34c-113.3 0-206.01-92.71-206.01-206.01V207.68c0-113.3 92.71-206.01 206.01-206.01zm1254.64 55.56H204.34c-41.31 0-78.92 16.95-106.22 44.24-27.29 27.3-44.24 64.9-44.24 106.22v1254.64c0 41.31 16.95 78.92 44.24 106.22 27.3 27.29 64.9 44.24 106.22 44.24h1254.64c41.31 0 78.92-16.95 106.22-44.24 27.29-27.3 44.24-64.9 44.24-106.22V207.69c0-41.31-16.95-78.92-44.24-106.22-27.3-27.29-64.9-44.24-106.22-44.24z"/><path class="fil1" d="M659.7 2197.3c-15.78 1.05-34.69.15-50.8.15h-50.84c-37.8 0-58.39 1.16-84.58-17.31-18.67-13.17-33.77-33.15-38.98-62.77-2.13-12.09-1.02-83.24-1.02-101.13v-152.52c0-18.86 1.83-32.42-11.51-40.17-7.28-4.22-12.63-3.18-21.85-3.18h-76.6c-9.73 0-14.29-.87-21.29 3.78-13.87 9.2-10.45 24.42-10.45 40.93v229.81c0 34.82 3.39 58.45 13.68 87.93 16.14 46.22 48.99 88.12 88.9 115.08 19.83 13.39 43.13 25.27 69.84 32.53 32.88 8.94 57.24 8.55 93.19 8.55h50.84c16.52 0 35.08-.79 51.35.1.8 6 .21 57.82.19 68.32-.06 21.18 18.19 32.76 38.6 20.98l130.62-75.48c28.73-16.43 59.52-33.7 87.7-50.54 18.09-10.8 35.14-15.73 35.23-33.94.06-10.78-5.51-17.45-12.58-21.33l-65.74-37.98c-28.19-16.31-60.13-34.14-87.69-50.64-13.84-8.29-29.62-16.77-43.41-24.98-14.61-8.7-28.94-16.73-43.81-25.37-21.82-12.69-38.93 1.4-38.9 19.96.03 22.28 1.03 47.27-.08 69.22z"/></g></svg>